<?xml version="1.0" standalone="no"?>
<svg version="1.1" xmlns="http://www.w3.org/2000/svg"
 width="640" height="294" viewBox="0 0 640 294"
 preserveAspectRatio="xMidYMid meet">
<defs>
  <linearGradient id="clpGradient" x1="0" y1="0" x2="0.3" y2="1">
    <stop offset="0%" stop-color="#00dbbe"/>
    <stop offset="100%" stop-color="#1888fa"/>
  </linearGradient>
</defs>
<g transform="translate(0,294) scale(0.1,-0.1)"
fill="url(#clpGradient)" stroke="none">
<path d="M1145 2934 c-206 -29 -306 -58 -447 -130 -389 -202 -637 -607 -687
-1128 -76 -781 263 -1418 859 -1614 114 -38 234 -54 400 -53 318 0 526 59 853
243 48 27 87 53 87 58 0 6 -175 325 -186 339 -2 2 -52 -24 -111 -57 -208 -117
-333 -162 -514 -183 -480 -55 -824 186 -953 670 -38 141 -49 261 -43 454 6
192 30 319 87 462 104 263 294 444 542 516 52 15 113 23 210 26 228 9 354 -19
601 -132 l138 -64 84 176 c47 97 85 178 85 180 0 9 -263 127 -353 159 -158 55
-270 74 -457 79 -91 2 -178 2 -195 -1z M4940 2919 c-69 -5 -190 -17 -270 -27
l-145 -17 0 -313 c0 -171 1 -805 3 -1407 l2 -1095 200 0 200 0 0 514 0 514
218 -5 c167 -4 245 -2 338 11 401 53 687 239 829 539 62 130 78 211 79 392 0
135 -4 173 -22 240 -65 233 -213 414 -427 520 -219 109 -620 163 -1005 134z
m489 -404 c146 -22 265 -52 337 -86 81 -38 173 -135 205 -216 27 -71 37 -222
19 -306 -39 -192 -193 -333 -435 -399 -73 -20 -104 -22 -340 -22 -143 -1 -268
2 -277 6 -17 7 -18 41 -18 517 l0 510 38 4 c102 10 373 6 471 -8z M2510 1475
l0 -1415 925 0 925 0 0 195 0 195 -727 2 -728 3 -3 1218 -2 1217 -195 0 -195
0 0 -1415z"/>
</g>
</svg>
